<svg xmlns="http://www.w3.org/2000/svg" viewBox="0 0 2576.56 1738.14"><defs><style>.cls-1{fill:#1d3f99;}.cls-2{fill:#47b0f9;}.cls-3{fill:#fff;}</style></defs><g id="Livello_2" data-name="Livello 2"><g id="Livello_1-2" data-name="Livello 1"><path class="cls-1" d="M223.21,590.69c-.33-14.7-1.83-29.31-6.23-43.36-2.12-6.77-5.33-13.88-11.63-17.16-26.89-14-31.47,67.12-32,80.33-3.27,77.58,17.37,154,25.19,231.21,9.44-44.64,15.06-90,18.86-135.44,2.26-26.94,4.39-53.92,5.25-80.95C223,613.88,223.46,602.26,223.21,590.69Z"/><path class="cls-2" d="M306.89,548.08c-.33-22.23-1.83-44.33-6.23-65.57-2.12-10.25-5.33-21-11.63-26-26.9-21.21-31.47,101.53-32,121.51-3.28,117.33,17.36,232.87,25.19,349.7,9.43-67.52,15.06-136.12,18.86-204.85,2.26-40.76,4.39-81.55,5.25-122.44C306.67,583.16,307.14,565.58,306.89,548.08Z"/><path class="cls-1" d="M388.2,474c-.32-31.33-1.82-62.48-6.23-92.41-2.12-14.44-5.33-29.6-11.62-36.59-26.9-29.89-31.48,143.07-32,171.23C335,681.6,355.68,844.43,363.51,1009.07c9.43-95.15,15.05-191.83,18.86-288.68,2.25-57.44,4.39-114.93,5.25-172.55C388,523.46,388.45,498.69,388.2,474Z"/><path class="cls-2" d="M472.35,367.34c-.32-43.89-1.82-87.53-6.23-129.46-2.12-20.23-5.33-41.46-11.62-51.26-26.9-41.87-31.47,200.43-32,239.88-3.28,231.61,17.36,459.71,25.19,690.36,9.43-133.3,15-268.73,18.86-404.41,2.25-80.46,4.39-161,5.25-241.71C472.13,436.59,472.61,401.88,472.35,367.34Z"/><path class="cls-1" d="M553.66,274.68c-.32-43.89-1.82-87.53-6.22-129.46C545.32,125,542.11,103.76,535.81,94c-26.9-41.87-31.47,200.43-32,239.88C500.5,565.45,521.14,793.55,529,1024.2c9.43-133.3,15-268.73,18.86-404.41,2.26-80.46,4.39-161,5.25-241.71C553.44,343.93,553.92,309.22,553.66,274.68Z"/><path class="cls-2" d="M627.7,199c-.32-43.89-1.82-87.53-6.23-129.46-2.12-20.23-5.33-41.46-11.62-51.26-26.9-41.87-31.48,200.43-32,239.87C574.54,489.81,595.18,717.91,603,948.56c9.43-133.3,15-268.73,18.86-404.41,2.25-80.46,4.39-161,5.25-241.71C627.48,268.28,628,233.58,627.7,199Z"/><path class="cls-1" d="M713.27,199c-.33-43.89-1.83-87.53-6.23-129.46-2.12-20.23-5.33-41.46-11.63-51.26-26.89-41.87-31.47,200.43-32,239.87-3.27,231.62,17.37,459.72,25.19,690.37,9.44-133.3,15.06-268.73,18.86-404.41,2.26-80.46,4.4-161,5.25-241.71C713.05,268.28,713.52,233.58,713.27,199Z"/><path class="cls-2" d="M794.39,200.24c-.32-47.36-1.82-94.45-6.22-139.7-2.12-21.83-5.33-44.74-11.63-55.31-26.9-45.19-31.47,216.28-32,258.85-3.28,250,17.36,496.09,25.19,745,9.43-143.84,15-290,18.86-436.41,2.26-86.82,4.39-173.73,5.25-260.84C794.17,275,794.65,237.52,794.39,200.24Z"/><path class="cls-1" d="M870.77,212.19c-.26-37.86-1.46-75.5-5-111.67-1.69-17.45-4.26-35.76-9.29-44.22C835,20.18,831.34,229.19,830.9,263.22,828.27,463,844.77,659.78,851,858.73c7.54-115,12-231.8,15.08-348.84,1.8-69.41,3.51-138.88,4.19-208.51C870.59,271.92,871,242,870.77,212.19Z"/><path class="cls-2" d="M949.51,250.91c-.25-29.73-1.45-59.28-5-87.67-1.7-13.7-4.26-28.08-9.3-34.72-21.5-28.36-25.15,135.74-25.6,162.45C907,447.83,923.52,602.31,929.77,758.51c7.54-90.27,12-182,15.08-273.88,1.8-54.49,3.51-109,4.2-163.7C949.34,297.8,949.72,274.3,949.51,250.91Z"/><path class="cls-1" d="M1031.79,356.05c-.26-27.44-1.46-54.73-5-80.95-1.69-12.65-4.26-25.92-9.29-32.05-21.5-26.18-25.16,125.32-25.61,150-2.62,144.82,13.88,287.44,20.14,431.65,7.54-83.34,12-168,15.08-252.86,1.8-50.3,3.51-100.66,4.19-151.13C1031.61,399.34,1032,377.65,1031.79,356.05Z"/><path class="cls-2" d="M1110.52,467.61c-.26-22.52-1.46-44.91-5-66.43-1.7-10.38-4.26-21.27-9.29-26.3-21.51-21.49-25.16,102.85-25.61,123.09-2.62,118.85,13.88,235.9,20.14,354.26,7.54-68.4,12-137.9,15.07-207.52,1.81-41.29,3.51-82.62,4.2-124C1110.34,503.15,1110.72,485.34,1110.52,467.61Z"/><path class="cls-1" d="M1191.39,579.47c-.26-17.73-1.46-35.35-5-52.28-1.7-8.17-4.26-16.74-9.29-20.7-21.51-16.91-25.16,80.93-25.61,96.86-2.62,93.53,13.88,185.64,20.14,278.78,7.54-53.83,12-108.51,15.07-163.3,1.81-32.49,3.51-65,4.2-97.61C1191.21,607.43,1191.59,593.42,1191.39,579.47Z"/><path class="cls-2" d="M1267.22,644.64c-.26-17.72-1.46-35.34-5-52.27-1.7-8.17-4.27-16.75-9.3-20.7-21.5-16.91-25.16,80.93-25.6,96.86-2.62,93.53,13.87,185.64,20.13,278.78,7.54-53.83,12-108.52,15.08-163.31,1.8-32.49,3.51-65,4.2-97.6C1267.05,672.6,1267.43,658.59,1267.22,644.64Z"/><path class="cls-1" d="M1348.54,654.44c-.26-13.33-1.46-26.58-5-39.32-1.7-6.15-4.26-12.6-9.3-15.57-21.5-12.72-25.15,60.88-25.6,72.86-2.62,70.36,13.88,139.66,20.14,209.72,7.54-40.49,12-81.63,15.07-122.85,1.81-24.44,3.51-48.91,4.2-73.43C1348.36,675.48,1348.74,664.94,1348.54,654.44Z"/><path class="cls-2" d="M1437.41,644.92c-.25-11.08-1.45-22.09-5-32.68-1.7-5.11-4.26-10.47-9.3-12.94-21.5-10.57-25.15,50.6-25.6,60.56-2.62,58.47,13.88,116.06,20.13,174.29,7.54-33.65,12-67.84,15.08-102.1,1.8-20.31,3.51-40.64,4.2-61C1437.24,662.41,1437.62,653.64,1437.41,644.92Z"/><path class="cls-1" d="M1515,649.8c-.26-12.23-1.46-24.4-5-36.09-1.7-5.63-4.26-11.55-9.3-14.28-21.5-11.68-25.15,55.86-25.6,66.86-2.62,64.57,13.88,128.15,20.14,192.44,7.54-37.15,12-74.91,15.07-112.73,1.81-22.43,3.51-44.88,4.2-67.38C1514.77,669.1,1515.15,659.43,1515,649.8Z"/><path class="cls-2" d="M1598.15,633.7c-.26-16.72-1.46-33.35-5-49.32-1.69-7.71-4.26-15.8-9.29-19.53-21.5-16-25.16,76.36-25.6,91.38-2.63,88.25,13.87,175.15,20.13,263,7.54-50.79,12-102.38,15.08-154.07,1.8-30.66,3.51-61.34,4.19-92.09C1598,660.08,1598.35,646.86,1598.15,633.7Z"/><path class="cls-1" d="M1681.51,608.69c-.26-16.73-1.46-33.35-5-49.32-1.7-7.71-4.26-15.8-9.29-19.53-21.5-16-25.16,76.35-25.61,91.38-2.62,88.24,13.88,175.14,20.14,263,7.54-50.78,12-102.37,15.07-154.07,1.81-30.65,3.51-61.33,4.2-92.08C1681.33,635.07,1681.71,621.85,1681.51,608.69Z"/><path class="cls-2" d="M1757.15,536.61c-.26-22.41-1.46-44.69-5-66.09-1.69-10.33-4.26-21.17-9.29-26.17-21.5-21.38-25.16,102.32-25.61,122.46-2.62,118.24,13.88,234.69,20.14,352.44,7.54-68,12-137.19,15.08-206.46,1.8-41.07,3.51-82.19,4.19-123.4C1757,572,1757.35,554.24,1757.15,536.61Z"/><path class="cls-1" d="M1838.46,476.09c-.26-22.4-1.46-44.68-5-66.09-1.7-10.32-4.27-21.16-9.3-26.17-21.5-21.37-25.16,102.32-25.6,122.46-2.62,118.25,13.88,234.7,20.13,352.44,7.54-68.05,12-137.19,15.08-206.45,1.8-41.08,3.51-82.19,4.2-123.4C1838.29,511.44,1838.67,493.73,1838.46,476.09Z"/><path class="cls-2" d="M1921.67,438.75c-.26-25.48-1.46-50.81-5-75.16-1.7-11.74-4.26-24.06-9.29-29.75-21.5-24.31-25.16,116.35-25.61,139.25-2.62,134.46,13.88,266.88,20.14,400.77,7.54-77.38,12-156,15.07-234.77,1.81-46.7,3.51-93.46,4.2-140.32C1921.49,479,1921.87,458.8,1921.67,438.75Z"/><path class="cls-1" d="M2001.09,448.61c-.26-25.47-1.46-50.8-5-75.15-1.69-11.74-4.26-24.07-9.29-29.76-21.5-24.3-25.16,116.36-25.6,139.26-2.62,134.46,13.87,266.87,20.13,400.77,7.54-77.38,12-156,15.08-234.77,1.8-46.71,3.51-93.46,4.19-140.32C2000.92,488.81,2001.29,468.67,2001.09,448.61Z"/><path class="cls-2" d="M2086.19,406c-.26-25.47-1.46-50.81-5-75.15-1.7-11.74-4.26-24.07-9.29-29.76-21.51-24.3-25.16,116.36-25.61,139.26-2.62,134.46,13.88,266.87,20.14,400.77,7.54-77.38,12-156,15.07-234.77,1.81-46.71,3.51-93.46,4.2-140.32C2086,446.21,2086.39,426.07,2086.19,406Z"/><path class="cls-1" d="M2161.83,408.7c-.26-19.4-1.46-38.7-5-57.24-1.7-8.94-4.26-18.33-9.29-22.66-21.5-18.52-25.16,88.62-25.61,106.06-2.62,102.41,13.88,203.26,20.14,305.24,7.54-58.93,12-118.81,15.07-178.81,1.81-35.57,3.51-71.18,4.2-106.87C2161.65,439.32,2162,424,2161.83,408.7Z"/><path class="cls-2" d="M2245,410.69c-.26-19.41-1.46-38.7-5-57.24-1.7-8.94-4.27-18.33-9.3-22.66-21.5-18.52-25.16,88.61-25.6,106.06-2.62,102.41,13.88,203.26,20.13,305.24,7.54-58.94,12-118.82,15.08-178.81,1.8-35.57,3.51-71.18,4.2-106.87C2244.86,441.31,2245.24,426,2245,410.69Z"/><path class="cls-1" d="M2328.24,477.77c-.26-19.41-1.46-38.7-5-57.24-1.7-8.95-4.26-18.34-9.29-22.67-21.5-18.51-25.16,88.62-25.61,106.06-2.62,102.41,13.88,203.27,20.14,305.25,7.54-58.94,12-118.82,15.07-178.81,1.81-35.58,3.51-71.19,4.2-106.88C2328.06,508.38,2328.44,493,2328.24,477.77Z"/><path class="cls-2" d="M2403.88,508.29c-.26-15.54-1.46-31-5-45.83-1.69-7.16-4.26-14.68-9.29-18.15-21.5-14.82-25.16,71-25.61,84.92-2.62,82,13.88,162.75,20.14,244.41,7.54-47.19,12-95.14,15.08-143.17,1.8-28.49,3.51-57,4.19-85.58C2403.7,532.8,2404.08,520.52,2403.88,508.29Z"/><path class="cls-3" d="M254.89,894.23c4.73,0,7.1,2.51,7.1,7.5v45q0,7.5-7.1,7.5H110.76q-19.17,0-29.47,12.38T71,1000.76v66q0,21.77,8.52,30.76t27.69,9h80.94q102.94,0,103,103.52v128.29q0,39-21.3,60t-60.35,21H7.81q-7.11,0-7.1-7.5v-45q0-7.5,7.1-7.51h164q22.71,0,35.5-11.25t12.78-32.26v-87q0-54.75-48.28-54.76H85.2q-85.2,0-85.2-84.77V985q0-43.5,23.08-67.15t65.67-23.63Z"/><path class="cls-3" d="M472.15,954.25v167.29H643.26c4.72,0,7.1,2.51,7.1,7.5v45c0,5-2.38,7.5-7.1,7.5H472.15v177.79H678.76c4.72,0,7.1,2.51,7.1,7.51v45c0,5-2.38,7.5-7.1,7.5H408.25q-7.11,0-7.1-7.5V901.73c0-5,2.36-7.5,7.1-7.5H678.76c4.72,0,7.1,2.51,7.1,7.5v45c0,5-2.38,7.5-7.1,7.5Z"/><path class="cls-3" d="M1147.35,1411.12q2.13,8.27-6.39,8.25h-56.8c-4.26,0-6.86-2-7.81-6l-39-168H888.91L847,1412.62q-2.13,6.75-7.81,6.75H781.7q-8.52,0-6.39-8.25L909.5,900.24q1.43-6,7.81-6h100.11q6.39,0,7.81,6Zm-123.54-225.81L970.56,954.25H962l-58.22,231.06Z"/><path class="cls-3" d="M1501.64,894.23c4.72,0,7.1,2.51,7.1,7.5v45c0,5-2.38,7.5-7.1,7.5H1357.51q-19.17,0-29.47,12.38t-10.29,34.13v66q0,21.77,8.52,30.76t27.69,9h80.94q102.93,0,102.95,103.52v128.29q0,39-21.3,60t-60.35,21H1254.56q-7.11,0-7.1-7.5v-45q0-7.5,7.1-7.51h164q22.71,0,35.5-11.25t12.78-32.26v-87q0-54.75-48.28-54.76H1332q-85.2,0-85.2-84.77V985q0-43.5,23.07-67.15t65.68-23.63Z"/><path class="cls-3" d="M1711.8,894.23c4.72,0,7.09,2.51,7.09,7.5v510.14q0,7.5-7.09,7.5H1655q-7.11,0-7.11-7.5V901.73c0-5,2.37-7.5,7.11-7.5Z"/><path class="cls-3" d="M2043.36,894.23q59.64,0,92,35.26t32.3,100.53v254.31q0,64.53-30.53,99.78t-86.62,35.26H1853.79q-7.11,0-7.1-7.5V901.73c0-5,2.36-7.5,7.1-7.5ZM2096.61,1030q0-36-17.75-55.89t-51.12-19.88h-110v405.1h110q33.36,0,51.12-19.5t17.75-55.52Z"/><path class="cls-3" d="M2362.85,954.25v167.29H2534c4.73,0,7.1,2.51,7.1,7.5v45q0,7.5-7.1,7.5H2362.85v177.79h206.61q7.1,0,7.1,7.51v45q0,7.5-7.1,7.5H2299q-7.1,0-7.1-7.5V901.73c0-5,2.37-7.5,7.1-7.5h270.51c4.73,0,7.1,2.51,7.1,7.5v45q0,7.5-7.1,7.5Z"/><path class="cls-3" d="M96.61,1667.38a2.09,2.09,0,0,1,2.37,2.36v14.2a2.09,2.09,0,0,1-2.37,2.37H19.23a2.09,2.09,0,0,1-2.37-2.37v-14.2a2.09,2.09,0,0,1,2.37-2.36Z"/><path class="cls-3" d="M416.58,1572.47c1.73,0,2.6.64,2.6,1.9v161.16a4.26,4.26,0,0,1-.36,1.9c-.23.47-.82.71-1.77.71H397.88c-1.74,0-2.69-.71-2.84-2.14V1598.51H392.2l-37.39,121.17a2.61,2.61,0,0,1-2.61,1.89H330.9a2.65,2.65,0,0,1-2.6-2.13L290,1596.14h-2.84v140.1c0,1.27-.87,1.9-2.6,1.9H265.59q-2.13,0-2.13-2.61V1574.37c0-1.26.86-1.9,2.6-1.9h39.29a2.39,2.39,0,0,1,2.6,1.9l33.6,110.52,35.27-110.52a2.61,2.61,0,0,1,2.6-1.9Z"/><path class="cls-3" d="M596,1572.47a2.09,2.09,0,0,1,2.37,2.37v120.7q0,20.36-10.18,31.47t-28.87,11.13H528q-18.7,0-28.87-11.13T489,1695.54v-120.7a2.09,2.09,0,0,1,2.37-2.37h18.93a2.09,2.09,0,0,1,2.37,2.37v120.7q0,11.36,5.91,17.51t17,6.15h16.1q11.12,0,17-6.15t5.92-17.51v-120.7a2.09,2.09,0,0,1,2.37-2.37Z"/><path class="cls-3" d="M750.74,1572.47a2.1,2.1,0,0,1,2.37,2.37V1589a2.1,2.1,0,0,1-2.37,2.37h-48q-6.39,0-9.82,3.9c-2.29,2.61-3.44,6.19-3.44,10.77v20.83q0,6.85,2.84,9.7t9.23,2.84h27q34.32,0,34.32,32.66v40.47q0,12.3-7.1,18.93t-20.12,6.63H668.38a2.09,2.09,0,0,1-2.37-2.37v-14.2a2.09,2.09,0,0,1,2.37-2.37h54.67q7.58,0,11.83-3.55t4.26-10.17V1678q0-17.28-16.09-17.28H694.18q-28.41,0-28.4-26.74v-32.9q0-13.72,7.69-21.18t21.89-7.46Z"/><path class="cls-3" d="M849.19,1572.47a2.09,2.09,0,0,1,2.36,2.37v160.93a2.09,2.09,0,0,1-2.36,2.37H830.26a2.09,2.09,0,0,1-2.37-2.37V1574.84a2.09,2.09,0,0,1,2.37-2.37Z"/><path class="cls-3" d="M1010.35,1572.47q2.37,0,2.37,2.13V1589a2.09,2.09,0,0,1-2.37,2.37H968q-11.13,0-17,6.27T945,1615.31v80.23q0,11.36,5.92,17.51t17,6.15h48.75a2.09,2.09,0,0,1,2.37,2.37v14.2a2.09,2.09,0,0,1-2.37,2.37H960.42q-18.7,0-28.88-11.13t-10.17-31.47v-80.23q0-20.6,10.77-31.71t30.64-11.13Z"/><path class="cls-3" d="M1261.92,1572.47a2.1,2.1,0,0,1,2.37,2.37V1589a2.1,2.1,0,0,1-2.37,2.37h-64.14v52.77h52.31a2.09,2.09,0,0,1,2.36,2.37v14.2a2.09,2.09,0,0,1-2.36,2.37h-52.31v72.65a2.09,2.09,0,0,1-2.36,2.37h-18.94a2.09,2.09,0,0,1-2.36-2.37V1574.84a2.09,2.09,0,0,1,2.36-2.37Z"/><path class="cls-3" d="M1349.48,1591.41v52.77h57a2.09,2.09,0,0,1,2.37,2.37v14.2a2.09,2.09,0,0,1-2.37,2.37h-57v56.08h68.87a2.09,2.09,0,0,1,2.36,2.37v14.2a2.09,2.09,0,0,1-2.36,2.37h-90.17a2.09,2.09,0,0,1-2.37-2.37V1574.84a2.09,2.09,0,0,1,2.37-2.37h90.17a2.09,2.09,0,0,1,2.36,2.37V1589a2.09,2.09,0,0,1-2.36,2.37Z"/><path class="cls-3" d="M1570.76,1572.47a2.09,2.09,0,0,1,2.36,2.37V1589a2.09,2.09,0,0,1-2.36,2.37h-48q-6.39,0-9.82,3.9c-2.29,2.61-3.43,6.19-3.43,10.77v20.83q0,6.85,2.84,9.7t9.23,2.84h27q34.32,0,34.32,32.66v40.47q0,12.3-7.1,18.93t-20.12,6.63H1488.4a2.09,2.09,0,0,1-2.37-2.37v-14.2a2.09,2.09,0,0,1,2.37-2.37h54.67q7.56,0,11.83-3.55t4.26-10.17V1678q0-17.28-16.09-17.28h-28.88q-28.39,0-28.4-26.74v-32.9q0-13.72,7.7-21.18t21.89-7.46Z"/><path class="cls-3" d="M1739,1572.47a2.09,2.09,0,0,1,2.37,2.37V1589a2.09,2.09,0,0,1-2.37,2.37h-40.23v144.36a2.09,2.09,0,0,1-2.37,2.37h-18.93a2.09,2.09,0,0,1-2.37-2.37V1591.41h-40.23a2.09,2.09,0,0,1-2.36-2.37v-14.2a2.09,2.09,0,0,1,2.36-2.37Z"/><path class="cls-3" d="M1823,1572.47a2.09,2.09,0,0,1,2.36,2.37v160.93a2.09,2.09,0,0,1-2.36,2.37h-18.93a2.09,2.09,0,0,1-2.37-2.37V1574.84a2.09,2.09,0,0,1,2.37-2.37Z"/><path class="cls-3" d="M2006.68,1572.47q2.85,0,2.14,2.6l-39.29,161.17a2.38,2.38,0,0,1-2.6,1.9h-33.37a2.39,2.39,0,0,1-2.61-1.9l-41.41-161.17q-.72-2.6,2.13-2.6h18.93a2.38,2.38,0,0,1,2.6,1.9l36.21,144.83h2.84l32.66-144.6q.24-2.13,2.61-2.13Z"/><path class="cls-3" d="M2178.27,1735.53q.7,2.61-2.13,2.61h-18.93a2.39,2.39,0,0,1-2.61-1.9l-13-53h-49.47l-14,52.77a2.65,2.65,0,0,1-2.6,2.14h-19.17q-2.85,0-2.13-2.61L2099,1574.37a2.4,2.4,0,0,1,2.61-1.9H2135a2.39,2.39,0,0,1,2.6,1.9Zm-41.18-71.23-17.75-72.89h-2.84l-19.41,72.89Z"/><path class="cls-3" d="M2337.06,1719.2a2.09,2.09,0,0,1,2.37,2.37v14.2a2.09,2.09,0,0,1-2.37,2.37h-92.53a2.09,2.09,0,0,1-2.37-2.37V1574.84a2.09,2.09,0,0,1,2.37-2.37h18.93a2.09,2.09,0,0,1,2.37,2.37V1719.2Z"/><path class="cls-3" d="M2574.2,1667.38a2.09,2.09,0,0,1,2.36,2.36v14.2a2.09,2.09,0,0,1-2.36,2.37h-77.4a2.09,2.09,0,0,1-2.36-2.37v-14.2a2.09,2.09,0,0,1,2.36-2.36Z"/></g></g></svg>